<?xml version="1.0" encoding="utf-8"?>
<svg width="46.667" height="46.667" viewBox="0 0 46.667 46.667" fill="none" xmlns="http://www.w3.org/2000/svg">
    <path d="M23.3333 0C10.4463 0 0 10.4463 0 23.3333C0 36.2203 10.4463 46.6667 23.3333 46.6667C36.2203 46.6667 46.6667 36.2203 46.6667 23.3333C46.6667 10.4463 36.2203 0 23.3333 0C23.3333 0 23.3333 0 23.3333 0ZM36.6497 17.983C36.6497 17.983 20.3163 34.3164 20.3163 34.3164C19.8613 34.7714 19.264 35 18.6667 35C18.0693 35 17.472 34.7714 17.017 34.3164C17.017 34.3164 10.017 27.3164 10.017 27.3164C9.10468 26.404 9.10468 24.9294 10.017 24.017C10.9293 23.1047 12.404 23.1047 13.3163 24.017C13.3163 24.017 18.6667 29.3674 18.6667 29.3674C18.6667 29.3674 33.3503 14.6837 33.3503 14.6837C34.2627 13.7714 35.7373 13.7714 36.6497 14.6837C37.562 15.596 37.562 17.0707 36.6497 17.983C36.6497 17.983 36.6497 17.983 36.6497 17.983Z" fill="#FFFFFF" transform="translate(-0.001 -0)" />
</svg>