<?xml version="1.0" encoding="utf-8"?>
<svg width="22.503" height="22.497" viewBox="0 0 22.503 22.497" fill="none" xmlns="http://www.w3.org/2000/svg">
  <path d="M8.59796 0C6.39464 0 4.19141 0.838193 2.51484 2.51476C-0.838281 5.86788 -0.838281 11.3279 2.51484 14.681C4.19141 16.3575 6.38915 17.1962 8.60946 17.1962C10.8298 17.1962 13.0275 16.3575 14.7041 14.681C18.0346 11.3279 18.0342 5.86788 14.6811 2.51476C13.0045 0.838193 10.8013 0 8.59796 0C8.59796 0 8.59796 0 8.59796 0ZM8.58685 1.33679C10.4447 1.33679 12.3024 2.03878 13.7071 3.46613C16.5391 6.29816 16.539 10.8976 13.7296 13.7296C10.8976 16.5616 6.29822 16.5616 3.46619 13.7296C0.634155 10.8976 0.634155 6.29816 3.46619 3.46613C4.87087 2.06144 6.72904 1.33679 8.58685 1.33679C8.58685 1.33679 8.58685 1.33679 8.58685 1.33679ZM8.58681 2.69617C7.02353 2.69617 5.5507 3.30771 4.44054 4.44052C3.3757 5.50537 2.78672 6.88749 2.71875 8.3828C2.6961 8.76795 2.99072 9.0624 3.37587 9.08505C3.37587 9.08505 3.39844 9.08505 3.39844 9.08505C3.76094 9.08505 4.05547 8.79043 4.07813 8.42793C4.12344 7.27246 4.59896 6.20753 5.39192 5.39191C6.25286 4.53097 7.38603 4.05554 8.58681 4.05554C8.97197 4.05554 9.2665 3.76101 9.2665 3.37585C9.2665 2.9907 8.97197 2.69617 8.58681 2.69617C8.58681 2.69617 8.58681 2.69617 8.58681 2.69617ZM4.66711 11.2374C4.29173 11.2374 3.98743 11.5417 3.98743 11.9171C3.98743 12.2925 4.29173 12.5968 4.66711 12.5968C5.04249 12.5968 5.3468 12.2925 5.3468 11.9171C5.3468 11.5417 5.04249 11.2374 4.66711 11.2374C4.66711 11.2374 4.66711 11.2374 4.66711 11.2374ZM15.6244 14.9757C15.4517 14.9757 15.2818 15.0438 15.1572 15.1797C14.8853 15.4516 14.8853 15.8819 15.1572 16.1311C15.1572 16.1311 15.7236 16.6975 15.7236 16.6975C15.5876 16.9694 15.5196 17.264 15.5196 17.5812C15.5196 18.1249 15.7234 18.6461 16.1085 19.0313C16.1085 19.0313 19.0087 21.8859 19.0087 21.8859C19.4165 22.2937 19.9373 22.4974 20.4584 22.4974C20.9795 22.4974 21.5006 22.2936 21.9084 21.9084C22.7014 21.1155 22.7014 19.8242 21.9084 19.0313C21.9084 19.0313 19.0087 16.1311 19.0087 16.1311C18.6236 15.7459 18.1024 15.5421 17.5586 15.5421C17.2414 15.5421 16.9468 15.6102 16.6749 15.7461C16.6749 15.7461 16.1085 15.1797 16.1085 15.1797C15.9726 15.0438 15.7972 14.9757 15.6244 14.9757C15.6244 14.9757 15.6244 14.9757 15.6244 14.9757ZM17.5587 16.8789C17.74 16.8789 17.9211 16.947 18.0344 17.0829C18.0344 17.0829 20.9116 19.9601 20.9116 19.9601C21.1835 20.2319 21.1835 20.6622 20.9116 20.9115C20.6397 21.1833 20.2094 21.1833 19.9602 20.9115C19.9602 20.9115 17.083 18.0569 17.083 18.0569C16.9471 17.9209 16.879 17.7398 16.879 17.5586C16.879 17.3773 16.9471 17.1962 17.083 17.0829C17.219 16.947 17.3775 16.8789 17.5587 16.8789C17.5587 16.8789 17.5587 16.8789 17.5587 16.8789Z" fill="#000000" />
</svg>