<?xml version="1.0" encoding="utf-8"?>
<svg fill-rule="nonzero" width="68" height="68" viewBox="0 0 68.086 68.083" fill="none" xmlns="http://www.w3.org/2000/svg">
    <path d="M31.8012 6.51728C30.5542 8.14543 29.1469 10.6574 27.1027 14.3246C27.1027 14.3246 26.065 16.1861 26.065 16.1861C26.0025 16.2983 25.9407 16.4095 25.8796 16.5196C24.9272 18.2334 24.1235 19.6799 22.8283 20.6631C21.5191 21.6569 19.9232 22.0155 18.0685 22.4324C17.9493 22.4591 17.829 22.4862 17.7077 22.5136C17.7077 22.5136 15.6926 22.9695 15.6926 22.9695C11.7174 23.869 9.0131 24.4878 7.16079 25.2178C5.35326 25.9301 4.97171 26.5137 4.82629 26.9814C4.6728 27.475 4.66824 28.2299 5.74884 29.9465C6.84561 31.6888 8.69586 33.8618 11.4019 37.0263C11.4019 37.0263 12.7756 38.6327 12.7756 38.6327C12.8555 38.7261 12.9346 38.8183 13.0129 38.9098C14.2891 40.3984 15.3532 41.6395 15.8414 43.2092C16.3265 44.7694 16.1657 46.4088 15.9707 48.3965C15.9588 48.5184 15.9467 48.6416 15.9346 48.7664C15.9346 48.7664 15.7269 50.9096 15.7269 50.9096C15.3181 55.1282 15.0425 58.033 15.1357 60.1252C15.2287 62.2139 15.6699 62.7912 16.0206 63.0572C16.3325 63.2941 16.9092 63.5563 18.7877 63.0179C20.6968 62.4711 23.2341 61.3102 26.9563 59.5964C26.9563 59.5964 28.8429 58.7277 28.8429 58.7277C28.9591 58.6742 29.0744 58.621 29.1884 58.5681C30.9136 57.7708 32.4101 57.0785 34.0432 57.0785C35.6762 57.0785 37.1728 57.7708 38.898 58.5681C39.0123 58.621 39.1273 58.6742 39.2435 58.7277C39.2435 58.7277 41.1302 59.5964 41.1302 59.5964C44.8523 61.3102 47.3897 62.4711 49.2989 63.0179C51.1774 63.5563 51.754 63.2941 52.066 63.0572C52.4165 62.7912 52.8576 62.2139 52.9507 60.1252C53.0438 58.033 52.7683 55.1282 52.3595 50.9096C52.3595 50.9096 52.1518 48.7664 52.1518 48.7664C52.1397 48.6416 52.1277 48.5184 52.1157 48.3965C51.9209 46.4088 51.7601 44.7694 52.2452 43.2092C52.7332 41.6395 53.7975 40.3984 55.0737 38.9095C55.1519 38.8183 55.231 38.7261 55.3108 38.6327C55.3108 38.6327 56.6845 37.0263 56.6845 37.0263C59.3905 33.8618 61.2407 31.6888 62.3377 29.9465C63.4181 28.2299 63.4137 27.475 63.2601 26.9814C63.1148 26.5137 62.7332 25.9301 60.9257 25.2178C59.0735 24.4878 56.3691 23.869 52.394 22.9695C52.394 22.9695 50.3788 22.5136 50.3788 22.5136C50.2575 22.4862 50.1371 22.4591 50.0181 22.4323C48.1634 22.0155 46.5674 21.6569 45.2583 20.6631C43.9631 19.6799 43.1594 18.2334 42.2069 16.5196C42.1457 16.4095 42.084 16.2983 42.0216 16.1861C42.0216 16.1861 40.9839 14.3246 40.9839 14.3246C38.9395 10.6574 37.5322 8.14543 36.2855 6.51728C35.0397 4.89069 34.4036 4.75 34.0432 4.75C33.6831 4.75 33.0466 4.89069 31.8012 6.51728ZM28.03 3.62932C29.5393 1.65816 31.4051 0 34.0432 0C36.6814 0 38.5472 1.65816 40.0567 3.62932C41.54 5.56614 43.1125 8.38774 45.0347 11.8362C45.0347 11.8362 46.1703 13.8734 46.1703 13.8734C47.4135 16.1032 47.7314 16.5769 48.1304 16.8797C48.5142 17.1712 49.0095 17.3337 51.4269 17.8807C51.4269 17.8807 53.6439 18.3822 53.6439 18.3822C57.3667 19.2245 60.4336 19.9183 62.6673 20.7985C64.986 21.7123 67.0149 23.059 67.7961 25.5709C68.5691 28.057 67.7001 30.3439 66.3575 32.477C65.0528 34.5496 62.9688 36.986 60.4234 39.9627C60.4234 39.9627 58.9209 41.7199 58.9209 41.7199C57.2837 43.6341 56.9417 44.1028 56.7808 44.6196C56.6171 45.1468 56.6323 45.7558 56.8796 48.3081C56.8796 48.3081 57.1064 50.6454 57.1064 50.6454C57.4917 54.6231 57.8062 57.8664 57.696 60.3367C57.5842 62.8511 57.0129 65.2653 54.9381 66.8407C52.8241 68.4453 50.3648 68.2645 47.9905 67.5843C45.6883 66.9246 42.8184 65.6029 39.3331 63.9983C39.3331 63.9983 37.2571 63.0423 37.2571 63.0423C34.9853 61.9964 34.4989 61.8285 34.0432 61.8285C33.5875 61.8285 33.1011 61.9964 30.8297 63.0423C30.8297 63.0423 28.7533 63.9983 28.7533 63.9983C25.2683 65.6029 22.3983 66.9246 20.0961 67.5843C17.7218 68.2645 15.2623 68.4453 13.1485 66.8407C11.0735 65.2653 10.5024 62.8511 10.3904 60.3367C10.2804 57.8664 10.5948 54.6228 10.9803 50.6454C10.9803 50.6454 11.2068 48.3081 11.2068 48.3081C11.4541 45.7558 11.4695 45.1468 11.3056 44.6196C11.1448 44.1028 10.8028 43.6341 9.16565 41.7199C9.16565 41.7199 7.66313 39.9627 7.66313 39.9627C5.11761 36.9863 3.03372 34.5496 1.72905 32.477C0.386257 30.3439 -0.482517 28.057 0.290561 25.5709C1.07168 23.059 3.10066 21.7123 5.41926 20.7985C7.6529 19.9183 10.7199 19.2245 14.4427 18.3822C14.4427 18.3822 14.6443 18.3366 14.6443 18.3366C14.6443 18.3366 16.6594 17.8807 16.6594 17.8807C19.077 17.3337 19.5723 17.1712 19.9562 16.8797C20.3551 16.5769 20.6731 16.1032 21.9161 13.8734C21.9161 13.8734 23.0517 11.8362 23.0517 11.8362C24.9739 8.38774 26.5467 5.56614 28.03 3.62932Z" fill="#000000" fill-rule="evenodd" fill-opacity="1" transform="translate(-0 -0)" />
</svg>