<?xml version="1.0" encoding="utf-8"?>
<svg width="42.164" height="42.049" viewBox="0 0 42.164 42.049" fill="none" xmlns="http://www.w3.org/2000/svg">
    <path d="M21.0569 0.00451732C21.0139 0.0123303 20.971 0.0240483 20.9319 0.0357671C20.4671 0.141236 20.1389 0.559205 20.1507 1.03577C20.1507 1.03577 20.1507 7.03577 20.1507 7.03577C20.1468 7.39514 20.3343 7.73108 20.6468 7.91467C20.9593 8.09436 21.3421 8.09436 21.6546 7.91467C21.9671 7.73108 22.1546 7.39514 22.1507 7.03577C22.1507 7.03577 22.1507 1.03577 22.1507 1.03577C22.1624 0.746705 22.0452 0.469361 21.8382 0.274048C21.6272 0.0748301 21.3421 -0.0228267 21.0569 0.00451732ZM6.80691 5.87952C6.43191 5.94593 6.13113 6.21936 6.02566 6.58264C5.92019 6.94983 6.02957 7.34046 6.30691 7.59827C6.30691 7.59827 10.5569 11.8483 10.5569 11.8483C10.7991 12.1451 11.1858 12.2819 11.5608 12.1959C11.9319 12.11 12.2249 11.817 12.3108 11.4459C12.3968 11.0709 12.26 10.6842 11.9632 10.442C11.9632 10.442 7.71316 6.19202 7.71316 6.19202C7.50613 5.96936 7.20535 5.85608 6.90066 5.87952C6.86941 5.87952 6.83816 5.87952 6.80691 5.87952ZM35.1819 5.87952C34.9554 5.91077 34.7444 6.02405 34.5882 6.19202C34.5882 6.19202 30.3382 10.442 30.3382 10.442C30.0413 10.6842 29.9046 11.0709 29.9905 11.4459C30.0764 11.817 30.3694 12.11 30.7405 12.1959C31.1155 12.2819 31.5022 12.1451 31.7444 11.8483C31.7444 11.8483 35.9944 7.59827 35.9944 7.59827C36.3069 7.30139 36.3968 6.83655 36.2132 6.44592C36.0257 6.05139 35.6116 5.82483 35.1819 5.87952ZM20.7444 11.1295C15.4397 11.3561 11.1507 15.6764 11.1507 21.0358C11.1507 26.5397 15.6468 31.0358 21.1507 31.0358C26.6546 31.0358 31.1507 26.5397 31.1507 21.0358C31.1507 15.6959 31.1338 20.3672 31.1008 20.0398C30.6107 15.1697 26.8968 11.3912 21.6194 11.1295C21.5843 11.1295 21.1507 11.125 21.1507 11.125C21.1507 11.125 20.7561 11.1178 20.7444 11.1295ZM21.0882 13.0358C21.1077 13.0358 21.1311 13.0358 21.1507 13.0358C21.1819 13.0358 21.2132 13.0358 21.2444 13.0358C25.6194 13.0865 29.1507 16.649 29.1507 21.0358C29.1507 25.4576 25.5725 29.0358 21.1507 29.0358C16.7327 29.0358 13.1507 25.4576 13.1507 21.0358C13.1507 16.6373 16.6975 13.0709 21.0882 13.0358ZM0.869409 20.0358C0.318628 20.1139 -0.0680912 20.6256 0.0100338 21.1764C0.0881588 21.7272 0.599878 22.1139 1.15066 22.0358C1.15066 22.0358 7.15066 22.0358 7.15066 22.0358C7.51004 22.0397 7.84597 21.8522 8.02957 21.5397C8.20925 21.2272 8.20925 20.8444 8.02957 20.5319C7.84597 20.2194 7.51004 20.0319 7.15066 20.0358C7.15066 20.0358 1.15066 20.0358 1.15066 20.0358C1.11941 20.0358 1.08816 20.0358 1.05691 20.0358C1.02566 20.0358 0.994409 20.0358 0.963159 20.0358C0.931909 20.0358 0.900659 20.0358 0.869409 20.0358ZM34.8694 20.0358C34.3186 20.1139 33.9319 20.6256 34.01 21.1764C34.0882 21.7272 34.5999 22.1139 35.1507 22.0358C35.1507 22.0358 41.1507 22.0358 41.1507 22.0358C41.51 22.0397 41.846 21.8522 42.0296 21.5397C42.2093 21.2272 42.2093 20.8444 42.0296 20.5319C41.846 20.2194 41.51 20.0319 41.1507 20.0358C41.1507 20.0358 35.1507 20.0358 35.1507 20.0358C35.1194 20.0358 35.0882 20.0358 35.0569 20.0358C35.0257 20.0358 34.9944 20.0358 34.9632 20.0358C34.9319 20.0358 34.9007 20.0358 34.8694 20.0358ZM11.1507 29.9108C10.9241 29.942 10.7132 30.0553 10.5569 30.2233C10.5569 30.2233 6.30691 34.4733 6.30691 34.4733C6.01003 34.7155 5.87331 35.1022 5.95925 35.4772C6.04519 35.8483 6.33816 36.1412 6.70925 36.2272C7.08425 36.3131 7.47097 36.1764 7.71316 35.8795C7.71316 35.8795 11.9632 31.6295 11.9632 31.6295C12.26 31.3444 12.3499 30.903 12.1897 30.524C12.0335 30.1451 11.6546 29.903 11.2444 29.9108C11.2132 29.9108 11.1819 29.9108 11.1507 29.9108ZM30.8382 29.9108C30.4632 29.9772 30.1624 30.2506 30.0569 30.6139C29.9514 30.9811 30.0608 31.3717 30.3382 31.6295C30.3382 31.6295 34.5882 35.8795 34.5882 35.8795C34.8303 36.1764 35.2171 36.3131 35.5921 36.2272C35.9632 36.1412 36.2561 35.8483 36.3421 35.4772C36.428 35.1022 36.2913 34.7155 35.9944 34.4733C35.9944 34.4733 31.7444 30.2233 31.7444 30.2233C31.5569 30.024 31.2991 29.9147 31.0257 29.9108C30.9944 29.9108 30.9632 29.9108 30.9319 29.9108C30.9007 29.9108 30.8694 29.9108 30.8382 29.9108ZM21.0569 34.0045C21.0139 34.0123 20.971 34.024 20.9319 34.0358C20.4671 34.1412 20.1389 34.5592 20.1507 35.0358C20.1507 35.0358 20.1507 41.0358 20.1507 41.0358C20.1468 41.3951 20.3343 41.7311 20.6468 41.9147C20.9593 42.0944 21.3421 42.0944 21.6546 41.9147C21.9671 41.7311 22.1546 41.3951 22.1507 41.0358C22.1507 41.0358 22.1507 35.0358 22.1507 35.0358C22.1624 34.7467 22.0452 34.4694 21.8382 34.274C21.6272 34.0748 21.3421 33.9772 21.0569 34.0045Z" fill="#FFFFFF" transform="translate(0 -0)" />
</svg>